<?xml version="1.0" encoding="UTF-8"?>
<svg id="Capa_1" xmlns="http://www.w3.org/2000/svg" version="1.1" viewBox="0 0 1080 1080">
  <!-- Generator: Adobe Illustrator 29.6.0, SVG Export Plug-In . SVG Version: 2.1.1 Build 207)  -->
  <defs>
    <style>
      .st0 {
        fill: #f4f29f;
      }
    </style>
  </defs>
  <path class="st0" d="M485.6,371.9v18.8c0,7.6-2.9,14.6-8.6,20.5-5.8,6.1-14.4,9.1-25.5,9.1s-21.4-7.8-29.4-14.7l-.6-.5c-1.3-1.1-2.6-2.2-3.8-3.2h-.1c-5.5-4.6-12-7-18.8-7-27.9,0-34.2,30-34.2,40.5v22.5c.1,2,0,3.9-.2,5.8,0,.2,0,.5-.1.7,0,0,0,.1,0,.2-.2.9-.3,1.7-.6,2.5,0,0,0,.2,0,.3,0,.3-.2.6-.3,1-.6,1.8-1.3,3.6-2.3,5.4-.5,1-1.4,2.6-2.6,4.4-4.5,6-10.5,9.7-17.1,10.3,0,0-.1,0-.2,0-8.6,0-14.9-5.7-21.6-11.7-2.5-2.2-5-4.5-7.8-6.7-4.6-4.2-8.9-7-14.9-7.8-2.5-.7-5.2-1-8.1-1-6.6,0-14.1,1.9-22.2,5.7-7.1,3.3-12.6,8.1-16.3,14.3-.9,1.6-1.8,3.2-2.5,5-2.2,5.2-3.3,11.2-3.3,17.7s1.8,14.7,5.5,21.2c3.7,6.6,8.9,11.9,15.6,15.9h0c2,1.3,4.2,2.3,6.5,3.2,2.3.9,5,1.5,8.2,2l1.9.3c1.9.3,3.7.5,5.5.6.4,0,.9,0,1.3,0h74.9c7.2,1.2,13.2,4.2,17.7,9.1,6.4,6.9,8.9,14.3,8.8,21.2-.3,7.1-3.2,13.5-8.5,19-5.8,6.1-14.3,9.1-25.4,9.1s-21.3-7.8-29.3-14.7c-1.9-1.6-3.2-2.8-4.5-3.8-5.5-4.5-11.9-6.8-18.7-6.8-11.3,0-22.2,6.7-28.4,17.4-2,3.5-3.5,7.3-4.4,11.5-1,4-1.6,8.2-1.6,12.9l-.2,15.4c.3,3.4.8,14.5-3.9,23.4-4,7.6-10.5,12.7-17.7,14-1.2.2-2.5.3-3.7.3-2.8,0-6.7-.6-10.9-3v6.5c5.4,4.2,11.6,6.4,18.2,6.4,27.9,0,34.2-30,34.2-40.5v-22.5c-.1-2,0-3.9.2-5.8,0-.2,0-.5.1-.7,0,0,0-.1,0-.2.2-.9.3-1.7.6-2.5,0,0,0-.2,0-.2,0-.3.2-.6.3-1,.6-1.8,1.3-3.6,2.3-5.4.5-1,1.4-2.6,2.6-4.4,4.5-6,10.5-9.7,17.1-10.3,0,0,.1,0,.2,0,8.6,0,14.9,5.7,21.6,11.7,2.5,2.2,5,4.5,7.8,6.7,4.6,4.2,8.9,7,14.9,7.8,2.5.7,5.2,1,8.1,1,6.6,0,14.1-1.9,22.2-5.7,7.1-3.3,12.6-8.1,16.3-14.3.9-1.6,1.8-3.2,2.5-5,2.2-5.2,3.3-11.2,3.3-17.7s-1.8-14.7-5.5-21.2c-3.7-6.6-8.9-11.9-15.6-15.9h0c-2-1.3-4.2-2.3-6.5-3.2-2.3-.9-5-1.5-8.2-2l-1.9-.3c-1.9-.3-3.7-.5-5.5-.6-.4,0-.9,0-1.3,0h-74.9c-7.2-1.2-13.2-4.2-17.7-9.1-6.4-6.9-8.9-14.3-8.8-21.2.3-7.1,3.2-13.5,8.5-19,5.8-6.1,14.3-9.1,25.4-9.1s21.3,7.8,29.3,14.7c1.9,1.6,3.2,2.8,4.5,3.8,5.5,4.5,11.9,6.8,18.7,6.8,11.3,0,22.2-6.7,28.4-17.4,2-3.5,3.5-7.3,4.4-11.5,1-4,1.6-8.2,1.6-12.9l.2-15.4c-.3-3.4-.8-14.5,3.9-23.4,4-7.6,10.5-12.7,17.7-14,1.2-.2,2.5-.3,3.7-.3,3.8,0,9.5,1.1,15.2,6.2,2.7,2.4,6.8,6.7,7.4,7.2h0c8.8,9,18,13.4,28.3,13.4s14-1.9,21.8-5.5c7.1-3.4,12.6-8.2,16.2-14.4,3.7-6.3,5.6-13.8,5.6-22.3v-17.6h-15Z"/>
  <path class="st0" d="M485.1,565.7c0,21.6-12.2,45.7-29.6,45.7s-25.9-18.5-26.4-52.1v-54.6h-15v58.1c.2,48.1,26,55.3,41.4,55.3s13.8-3,18.5-7.4c4.4-4,11.3-.9,11.3,5h0c0,0,14.7,0,14.7,0v-111h-15v61Z"/>
  <path class="st0" d="M559.5,502.9c-7.2,0-13.9,2.1-19.8,6-7.1,4.6-16.5-.7-16.5-9.2v-37h-15v153h15v-15.6c0-2.2,2.8-3,4-1.2,7.8,12,19.5,19.2,32.6,19.2s29.1-6.2,38.5-18.1c8.3-10.5,12.9-24.7,12.9-39.9s-4.7-29.1-13.2-39.5c-9.4-11.5-22.7-17.6-38.4-17.6ZM584.4,594.2c-6.9,11.2-16,17.4-25.7,17.4-23.3,0-35.7-30.1-35.7-51.9,0-34.8,21.2-51,35.5-51,22.1,0,35.7,29.7,35.7,51s-3.7,24.5-9.8,34.5Z"/>
  <rect class="st0" x="619.3" y="462.6" width="15" height="153"/>
  <path class="st0" d="M649.5,472.5c-5.3,0-9.7,4.3-9.7,9.7s4.2,9.9,9.7,9.9,9.7-4.3,9.7-9.9-4.3-9.7-9.7-9.7Z"/>
  <rect class="st0" x="642.3" y="504.6" width="15" height="111"/>
  <path class="st0" d="M781.1,505.3c-7.6,0-14,3.1-19.1,8-7.4,7-19,7.2-26.3.2-7.6-7.4-17-10.5-25.5-10.5s-16.3,3.9-22.6,11.7h-.1c-2.4,3.1-7.1,1.4-7.1-2.4v-7.5h-15v111h15v-61c0-21.6,12.2-45.7,29.6-45.7s25.8,14.2,26.4,54.2v52.5h15v-55.7c0-1.9,0-3.6-.2-5.6,1.1-26.6,16.2-43.1,29.7-43.1s24.5,12.8,26.3,48.8v.2c.2,1.6.2,3.5.2,5.3v50.1h15v-53.3c0-28.5-12.8-57.2-41.3-57.2Z"/>
  <path class="st0" d="M915.1,572.1l-.3,1.6c-3,14.6-14.8,37.8-33.8,37.8s-31.5-21.2-34.9-41.6c43.9-16.5,49.7-18.5,70.4-26.1l11.7-4.3-.6-1.8c-7.1-22.1-24.6-35.3-46.9-35.3-34.5,0-50.1,29.6-50.1,57.2s4.5,29.5,12.7,40c9.2,11.8,22.2,18,37.7,18,24.4,0,43.1-16.4,48.8-42.9l.5-2.4-15.2-.3ZM845.2,559.7c0-24.1,14.6-51,35.5-51s24.1,11.7,29.8,24.5c1.3,2.9-.2,6.4-3.2,7.5-3,1.1-5.8,2.1-8.7,3.2-11.2,4.1-22.8,8.4-49.6,18.5-1.8.7-3.8-.7-3.8-2.6Z"/>
</svg>