<?xml version="1.0" encoding="UTF-8"?>
<svg id="Capa_1" xmlns="http://www.w3.org/2000/svg" version="1.1" viewBox="0 0 1080 1080">
  <!-- Generator: Adobe Illustrator 29.6.0, SVG Export Plug-In . SVG Version: 2.1.1 Build 207)  -->
  <defs>
    <style>
      .st0 {
        fill: #f4f29f;
      }
    </style>
  </defs>
  <g>
    <path class="st0" d="M748,356.3v79.1c0,28-15.7,59.2-38.3,59.2s-33.5-24-34.2-67.5v-70.8h-19.4v75.3c.3,62.3,33.7,71.6,53.6,71.6s17.8-3.9,24-9.6c5.6-5.1,14.7-1.2,14.7,6.4h0c0,0,19.1,0,19.1,0v-143.8h-19.4Z"/>
    <path class="st0" d="M627.6,598.7c-12.2-14.9-29.4-22.8-49.7-22.8s-18.1,2.7-25.7,7.7c-9.2,6-21.4-.9-21.4-11.9v-48h-19.4v198.3h19.4v-20.3c0-2.8,3.6-3.9,5.1-1.5,10.1,15.6,25.2,24.8,42.2,24.8s37.7-8.1,49.8-23.4c10.8-13.6,16.7-32,16.7-51.7s-6.1-37.8-17.1-51.2ZM610.2,694.2c-8.9,14.5-20.7,22.5-33.3,22.5-30.2,0-46.3-39.1-46.3-67.3,0-45.1,27.4-66.2,46-66.2,28.7,0,46.3,38.5,46.3,66.2s-4.8,31.7-12.7,44.7Z"/>
    <rect class="st0" x="655.1" y="523.7" width="19.4" height="198.3"/>
    <path class="st0" d="M691.7,536.5c-6.9,0-12.5,5.6-12.5,12.5s5.5,12.8,12.5,12.8,12.5-5.6,12.5-12.8-5.6-12.5-12.5-12.5Z"/>
    <rect class="st0" x="685.2" y="578.2" width="19.4" height="143.8"/>
    <path class="st0" d="M571.7,749.8c-9.9,0-18.1,4-24.8,10.3-9.5,9.1-24.6,9.4-34.1.2-9.9-9.6-22-13.6-33-13.6s-21.2,5.1-29.3,15.2v.2c-3.2,3.8-9.4,1.6-9.4-3.2v-9.7h-19.4v143.8h19.4v-79.1c0-28,15.7-59.2,38.3-59.2s33.4,18.4,34.2,70.3v68h19.4v-72.2c0-2.4,0-4.7-.3-7.3,1.4-34.5,21.1-55.8,38.5-55.8s31.8,16.6,34.1,63.2v.2c.3,2,.3,4.5.3,6.9v65h19.4v-69.1c0-36.9-16.5-74.1-53.5-74.1Z"/>
    <path class="st0" d="M745.1,838.7c-3.8,18.9-19.1,49-43.8,49s-40.8-27.4-45.2-54c57-21.3,64.4-24,91.2-33.8l15.2-5.5-.8-2.4c-9.2-28.6-31.9-45.7-60.7-45.7-44.6,0-65,38.4-65,74.1s5.8,38.3,16.5,51.9c11.9,15.3,28.8,23.3,48.8,23.3,31.6,0,55.8-21.3,63.3-55.6l.7-3.1-19.7-.4-.4,2.1ZM655,820.5c0-31.3,18.9-66.2,46-66.2s31.2,15.1,38.6,31.8c1.7,3.8-.3,8.3-4.2,9.7-3.9,1.4-7.6,2.8-11.2,4.1-14.6,5.4-29.6,10.9-64.3,23.9-2.4.9-5-.9-5-3.4Z"/>
  </g>
  <path class="st0" d="M747.2,184.3v24.3c0,9.9-3.7,18.8-11.1,26.5-7.5,7.8-18.6,11.8-32.9,11.8s-27.7-10.1-38-19l-.7-.6c-1.7-1.4-3.4-2.9-4.9-4.1h-.1c-7.1-5.9-15.6-9-24.3-9-36.1,0-44.2,38.8-44.2,52.4v29c.1,2.5,0,5-.3,7.5,0,.3,0,.6-.2,1,0,0,0,.2,0,.3-.2,1.1-.4,2.2-.7,3.3,0,.1,0,.2,0,.3-.1.4-.2.8-.4,1.2-.8,2.4-1.7,4.7-3,7-.7,1.3-1.8,3.3-3.4,5.6-5.8,7.8-13.6,12.5-22.1,13.3,0,0-.1,0-.2,0-11.2,0-19.3-7.4-27.9-15.2-3.2-2.9-6.5-5.9-10-8.6-5.9-5.4-11.5-9-19.2-10-3.2-.8-6.7-1.3-10.4-1.3-8.6,0-18.2,2.5-28.7,7.3-9.2,4.3-16.3,10.5-21.1,18.5-1.2,2-2.3,4.2-3.2,6.4-2.9,6.8-4.3,14.4-4.3,22.8s2.4,19.1,7.1,27.5c4.7,8.5,11.5,15.4,20.1,20.5h.1c2.6,1.6,5.4,3,8.4,4.1,3,1.1,6.4,2,10.6,2.6l2.4.4c2.4.4,4.8.6,7.1.7.6,0,1.1,0,1.7,0h95.5l1.3.2c9.4,1.3,17.1,5.2,22.9,11.5,8.2,8.9,11.5,18.4,11.4,27.4-.5,9.1-4.2,17.4-11,24.6-7.5,7.8-18.5,11.8-32.8,11.8s-27.5-10.1-37.8-18.9c-2.4-2.1-4.2-3.6-5.8-5-7.1-5.8-15.4-8.8-24.1-8.8-14.6,0-28.7,8.6-36.7,22.5-2.6,4.5-4.5,9.4-5.7,14.8-1.3,5.1-2,10.6-2,16.7l-.3,19.9c.4,4.4,1,18.8-5.1,30.3-5.2,9.8-13.5,16.4-22.8,18.1-1.6.3-3.2.4-4.8.4-3.6,0-8.7-.8-14-3.9v8.4c7,5.4,15,8.3,23.5,8.3,36.1,0,44.2-38.8,44.2-52.4v-29c-.1-2.5,0-5,.3-7.5,0-.3,0-.6.2-1,0,0,0-.2,0-.3.2-1.1.4-2.2.7-3.3,0-.1,0-.2,0-.3.1-.4.2-.8.4-1.2.8-2.4,1.7-4.7,3-7,.7-1.3,1.8-3.3,3.4-5.6,5.8-7.8,13.6-12.5,22.1-13.3,0,0,.1,0,.2,0,11.2,0,19.3,7.4,27.9,15.2,3.2,2.9,6.5,5.9,10,8.6,5.9,5.4,11.5,9,19.2,10,3.2.8,6.7,1.3,10.4,1.3,8.6,0,18.2-2.5,28.7-7.3,9.2-4.3,16.3-10.5,21.1-18.5,1.2-2,2.3-4.2,3.2-6.4,2.9-6.8,4.3-14.4,4.3-22.8s-2.4-19.1-7.1-27.5c-4.7-8.5-11.5-15.4-20.1-20.5h-.1c-2.6-1.6-5.4-3-8.4-4.1-3-1.1-6.4-2-10.6-2.6l-2.4-.4c-2.4-.4-4.8-.6-7.1-.7-.6,0-1.1,0-1.7,0h-95.5l-1.3-.2c-9.4-1.3-17.1-5.2-22.9-11.5-8.2-8.9-11.5-18.4-11.4-27.4.5-9.1,4.2-17.4,11-24.6,7.5-7.8,18.5-11.8,32.8-11.8s27.5,10.1,37.8,18.9c2.4,2.1,4.2,3.6,5.8,5,7.1,5.8,15.4,8.8,24.1,8.8,14.6,0,28.7-8.6,36.7-22.5,2.6-4.5,4.5-9.4,5.7-14.8,1.3-5.1,2-10.6,2-16.7l.3-19.9c-.4-4.4-1-18.8,5.1-30.3,5.2-9.8,13.5-16.4,22.8-18.1,1.6-.3,3.2-.4,4.8-.4,4.9,0,12.3,1.4,19.7,8,3.4,3.1,8.8,8.7,9.5,9.3h0c11.4,11.7,23.3,17.3,36.6,17.3s18.1-2.4,28.1-7.2c9.2-4.4,16.2-10.6,20.9-18.6,4.8-8.2,7.3-17.8,7.3-28.8v-22.7h-19.4Z"/>
</svg>